<?xml version="1.0"?>
<svg xmlns="http://www.w3.org/2000/svg" xmlns:xlink="http://www.w3.org/1999/xlink" version="1.1" viewBox="0 0 192 192" width="96px" height="96px"><g fill="none" fill-rule="nonzero" stroke="none" stroke-width="1" stroke-linecap="butt" stroke-linejoin="miter" stroke-miterlimit="10" stroke-dasharray="" stroke-dashoffset="0" font-family="none" font-weight="none" font-size="none" text-anchor="none" style="mix-blend-mode: normal"><path d="M0,192v-192h192v192z" fill="none"/><g fill="#525274"><g id="surface1"><path d="M90,12c-43.03124,0 -78,34.96876 -78,78c0,43.03126 34.96876,78 78,78c43.03126,0 78,-34.96874 78,-78c0,-15 -4.3125,-28.96874 -11.67187,-40.875l-8.76563,8.71876c5.34376,9.5625 8.4375,20.48437 8.4375,32.15624c0,36.375 -29.625,66 -66,66c-36.375,0 -66,-29.625 -66,-66c0,-36.375 29.625,-66 66,-66c11.67187,0 22.59376,3.09376 32.10937,8.4375l8.76563,-8.71874c-11.90624,-7.40626 -25.875,-11.71876 -40.875,-11.71876zM157.73437,13.78126l-71.95312,72c-1.17188,1.125 -1.78126,2.625 -1.78126,4.21874c0,3.32813 2.67187,6 6,6c1.78126,0 3.46876,-0.79687 4.59376,-2.15624l71.67187,-71.625zM90,36c-29.76563,0 -54,24.23437 -54,54c0,29.76563 24.23437,54 54,54c29.76563,0 54,-24.23437 54,-54c0,-8.29687 -2.0625,-16.07813 -5.4375,-23.15624l-9.14063,9.1875c1.54688,4.40624 2.57813,9.04687 2.57813,13.96874c0,23.15626 -18.84374,42 -42,42c-23.15624,0 -42,-18.84374 -42,-42c0,-23.15624 18.84376,-42 42,-42c4.92187,0 9.5625,1.03126 13.96876,2.57813l9.1875,-9.14063c-7.07813,-3.375 -14.85938,-5.4375 -23.15626,-5.4375zM87.375,60.23437c-6.79687,0.5625 -13.40624,3.375 -18.5625,8.57813c-11.71874,11.67187 -11.71874,30.70313 0,42.375c11.67187,11.71876 30.70313,11.71876 42.375,0c6.9375,-6.89063 9.65626,-16.3125 8.4375,-25.3125l-16.875,16.875c-7.03124,6.98437 -18.46874,6.98437 -25.5,0c-6.98437,-7.03124 -6.98437,-18.46874 0,-25.5l16.875,-16.82813c-2.25,-0.32812 -4.5,-0.375 -6.75,-0.1875z"/></g></g></g></svg>
