<?xml version="1.0"?>
<svg xmlns="http://www.w3.org/2000/svg" xmlns:xlink="http://www.w3.org/1999/xlink" version="1.1" viewBox="0 0 192 192" width="96px" height="96px"><g fill="none" fill-rule="nonzero" stroke="none" stroke-width="1" stroke-linecap="butt" stroke-linejoin="miter" stroke-miterlimit="10" stroke-dasharray="" stroke-dashoffset="0" font-family="none" font-weight="none" font-size="none" text-anchor="none" style="mix-blend-mode: normal"><path d="M0,192v-192h192v192z" fill="none"/><g fill="#525274"><g id="surface1"><path d="M78,12c-16.54687,0 -30,13.45313 -30,30c0,0.84376 0.1875,1.64063 0.28126,2.4375c3.70312,-1.64063 7.64062,-3.09374 11.90624,-4.21874c0.9375,-9.09376 8.48437,-16.21876 17.8125,-16.21876c7.82813,0 14.4375,5.0625 16.875,12c2.71876,0.04687 5.34376,0.09376 8.01563,0.28126c0.98437,-1.45313 2.20313,-2.76563 3.32813,-4.17188c-4.125,-11.67187 -15.14063,-20.10937 -28.21876,-20.10937zM137.76563,24c-0.42187,0 -0.79687,0.09376 -1.21876,0.1875c-6.1875,1.54687 -11.95312,5.53126 -17.10937,10.6875c-3.9375,3.98437 -6.65624,9.1875 -9.14063,14.4375c-4.96874,-0.65624 -9.98437,-1.3125 -15.79687,-1.3125c-18.65624,0 -35.85937,2.95313 -48.98437,11.34376c-6.04687,3.84374 -11.0625,9.04687 -14.76563,15.32812c-0.79687,-0.32812 -1.64063,-0.75 -2.625,-1.35937c-2.34374,-1.64063 -4.125,-3.42187 -4.125,-7.3125c0,-1.07813 0.51563,-2.90624 1.5,-4.07813c0.9375,-1.17187 1.92187,-1.92187 4.5,-1.92187c2.15626,0.04687 4.17187,-1.125 5.25,-2.95313c1.125,-1.875 1.125,-4.21874 0,-6.09374c-1.07813,-1.82813 -3.09374,-3 -5.25,-2.95313c-5.85937,0 -10.875,2.71876 -13.78124,6.28126c-2.95313,3.60937 -4.21876,7.78124 -4.21876,11.71874c0,8.34376 4.96876,14.25 9.375,17.25c1.73437,1.17187 3.32813,1.78126 4.78126,2.39063c-1.35938,4.78124 -2.15626,9.9375 -2.15626,15.60937c0,16.35937 9.9375,30.375 24,40.125v20.625c0,3.32813 2.67187,6 6,6h24c3.32813,0 6,-2.67187 6,-6v-7.125c3.70313,0.46876 7.3125,1.125 11.25,1.125c4.40626,0 8.57813,-0.75 12.75,-1.3125v7.3125c0.04687,3.32813 2.71876,6 6,6h24c3.32813,0 6,-2.67187 6,-6v-21c7.40626,-5.0625 14.15626,-10.78124 18.28126,-18c0,-0.04687 0,-0.04687 0.04687,-0.04687c-0.09376,0.09374 0.70313,-0.98437 1.73437,-1.6875c1.03126,-0.75 2.29687,-1.26563 3.9375,-1.26563h6c3.32813,0 6,-2.67187 6,-6v-24c0,-3.32813 -2.67187,-6 -6,-6h-6c-1.59374,0 -2.57813,-0.42187 -3.1875,-0.75c-0.5625,-0.375 -0.70313,-1.26563 -0.1875,0.23437c-3.60937,-9.84374 -10.82813,-17.15624 -20.39063,-23.20312l-0.23437,-30.32813c0,-1.64063 -0.70313,-3.1875 -1.875,-4.3125c-1.17187,-1.125 -2.71874,-1.6875 -4.35937,-1.64063zM132.09376,40.64063l0.14062,18.42187l3.28126,-1.5c-2.0625,0.9375 -3.42187,2.95313 -3.51563,5.20313c-0.04687,2.25 1.125,4.40624 3.14063,5.48437c9.9375,5.4375 15.23437,11.10937 18.23437,19.35937c1.07813,2.90626 2.71876,4.3125 5.10937,5.76563c2.4375,1.54687 5.67188,2.625 9.51563,2.625v12c-4.35937,0 -8.01563,1.5 -10.6875,3.32813c-2.625,1.78124 -4.3125,3.65624 -5.4375,5.71874c-3.5625,6.28126 -9.42187,12.04688 -16.92187,16.59376c-1.82813,1.07813 -2.95313,3 -2.95313,5.10937v17.25h-12v-7.96874c0.04687,-1.82813 -0.79687,-3.51563 -2.20313,-4.6875c-1.40624,-1.125 -3.28124,-1.59376 -5.01562,-1.21876c-5.625,1.21876 -11.48438,1.875 -17.53126,1.875c-5.57813,0 -10.92187,-0.60937 -16.03124,-1.6875c-1.78126,-0.32813 -3.60938,0.14063 -5.01563,1.26563c-1.40626,1.125 -2.20313,2.85937 -2.20313,4.64063v7.78124h-12v-16.96874c0,-2.10938 -1.07813,-4.03126 -2.90624,-5.15626c-13.26563,-8.10937 -21.09376,-19.875 -21.09376,-32.625c0,-16.07813 5.85937,-25.35937 15.9375,-31.78124c10.125,-6.46876 25.21876,-9.46876 42.5625,-9.46876c6.51563,0 12.32813,0.60937 17.8125,1.5c3,0.46876 5.85937,-1.35937 6.70313,-4.21874c1.59374,-4.82813 4.96874,-9.9375 8.95313,-13.96876c1.45312,-1.40624 2.625,-1.59374 4.125,-2.67187zM138,84c-3.28124,0 -6,2.67187 -6,6c0,3.32813 2.71876,6 6,6c3.32813,0 6,-2.67187 6,-6c0,-3.32813 -2.67187,-6 -6,-6z"/></g></g></g></svg>
