<?xml version="1.0"?>
<svg xmlns="http://www.w3.org/2000/svg" xmlns:xlink="http://www.w3.org/1999/xlink" version="1.1" viewBox="0 0 192 192" width="96px" height="96px"><g fill="none" fill-rule="nonzero" stroke="none" stroke-width="1" stroke-linecap="butt" stroke-linejoin="miter" stroke-miterlimit="10" stroke-dasharray="" stroke-dashoffset="0" font-family="none" font-weight="none" font-size="none" text-anchor="none" style="mix-blend-mode: normal"><path d="M0,192v-192h192v192z" fill="none"/><g fill="#525274"><g id="surface1"><path d="M124.5,24c-6.04687,0 -11.8125,2.34376 -16.17187,6.375c-11.0625,-8.71874 -28.125,-8.0625 -38.48437,1.59376c-5.90626,-1.45313 -12.14063,0.5625 -16.3125,4.78124c-14.4375,-3.79687 -28.26563,7.125 -29.4375,21.23437c-7.03126,2.4375 -12.09376,9.1875 -12.09376,17.01563c0,4.21876 1.5,8.15626 4.03126,11.25c-2.53126,3.09376 -4.03126,7.03126 -4.03126,11.25c0,7.82813 5.01563,14.48437 12,16.96876c0.1875,7.92187 5.8125,14.8125 13.54687,16.78124c1.03126,0.5625 2.25,0.79687 3.42188,0.70313c0,-0.04687 2.71874,0 3.65624,1.40624c0.60937,0.98438 3.04687,6.60938 -7.875,25.64063c-1.64063,2.90626 -0.60937,6.5625 2.25,8.20313c2.85937,1.64063 6.5625,0.65624 8.20313,-2.25c10.125,-17.67187 12.60937,-30.14063 7.54687,-38.01563c-3.14063,-4.96874 -8.4375,-6.60937 -12.28124,-6.9375c-0.375,-0.09374 -0.75,-0.1875 -1.17188,-0.28124c-3.04687,-0.375 -5.29687,-2.76563 -5.29687,-5.71876c0,-0.79687 0.1875,-1.59374 0.46876,-2.34374c0.84374,-1.875 0.32812,-4.03126 -0.89063,-5.71876c-1.125,-1.59374 -3.1875,-2.4375 -5.10937,-2.4375c-3.28126,0 -6.46876,-2.53124 -6.46876,-6c0,-2.53124 1.64063,-4.73437 4.17187,-5.53124c2.4375,-0.84376 4.07813,-3.14063 4.07813,-5.71876c0,-2.57813 -1.64063,-4.875 -4.07813,-5.71874c-2.53124,-0.79688 -4.17187,-3 -4.17187,-5.53126c0,-3.1875 2.48437,-5.76563 5.625,-6c2.15626,0.32813 3.98437,-0.51563 5.25,-2.0625c1.125,-1.3125 1.64063,-3.09374 1.35937,-4.875c-0.09374,-0.65624 -0.23437,-1.35937 -0.23437,-2.0625c0,-6.60937 5.39063,-12 12,-12c1.54687,0 3.1875,0.42187 4.96876,1.3125c2.85937,1.35937 6.375,0.23437 7.875,-2.57813c1.54687,-2.76562 4.125,-4.40624 7.82812,-2.4375c2.53126,1.35938 5.67188,0.70313 7.45313,-1.54687c6.98437,-8.67187 21.14063,-8.57813 28.03126,0.23437c1.21874,1.59376 3.23437,2.48438 5.15624,2.29688c2.01563,-0.1875 3.79687,-1.3125 4.78126,-3.09376c2.15624,-3.79687 6.14062,-6.1875 10.40624,-6.1875c5.25,0 9.79687,3.375 11.39063,8.4375c0.51563,1.6875 1.78124,3.09376 3.42187,3.75c1.6875,0.70313 3.51563,0.60937 5.10937,-0.23437c8.25,-4.40626 17.57813,2.0625 17.57813,10.54687c0,2.39063 -0.70313,4.6875 -2.0625,6.65626c-0.89063,1.40624 -1.17187,3.09374 -0.79687,4.6875c0.375,1.64062 1.40624,3 2.85937,3.84374c3.75,2.20313 6,6.04687 6,10.3125c0,6.60937 -5.39063,12 -12,12c-2.95313,0 -5.8125,-1.125 -8.0625,-3.1875c-1.73437,-1.59374 -4.17187,-2.01563 -6.32813,-1.125c-2.10937,0.84376 -3.5625,2.85937 -3.75,5.15626c-0.375,6.23437 -5.625,11.15624 -11.85937,11.15624c-1.17187,0 -2.4375,-0.23437 -3.84374,-0.70313c-3.04688,-1.07812 -6.32813,0.51563 -7.5,3.51563c-1.82813,4.6875 -6.1875,7.6875 -11.15626,7.6875l-1.35937,-0.1875c-3,-0.42187 -5.8125,1.59376 -6.51563,4.54687c-1.35937,5.39063 -6.09374,9.14063 -11.625,9.14063h-1.21874c-11.67188,-0.14063 -13.21876,3.04687 -18.09376,16.3125c-1.07813,3.04687 -2.48437,6.79687 -4.3125,11.48437c-1.17187,3.09376 0.375,6.60938 3.46876,7.82813c0.70312,0.23437 1.40624,0.375 2.15624,0.375c2.39063,0 4.6875,-1.45313 5.625,-3.79687c1.82813,-4.82813 3.23437,-8.67187 4.40626,-11.76563c1.45312,-4.07813 2.85937,-7.875 2.95312,-8.29687c0.46876,-0.14063 2.20313,-0.14063 3.75,-0.14063h1.26563c9.32813,0 17.67187,-5.39063 21.5625,-13.59374c7.35937,-0.65626 13.82813,-4.54688 17.85937,-10.59376c10.40626,1.35937 19.875,-4.59374 24.14063,-13.40624c2.67187,1.07812 5.53126,1.59374 8.4375,1.59374c13.21876,0 24,-10.78124 24,-24c0,-6.5625 -2.76563,-12.79687 -7.45313,-17.25c0.9375,-2.625 1.45313,-5.4375 1.45313,-8.25c0,-13.21874 -10.78124,-24 -24,-24c-1.78124,0 -3.5625,0.23437 -5.29687,0.65626c-4.35937,-6.84376 -11.85937,-11.15626 -20.20313,-11.15626zM72,60v12.84376h0.84376c-2.71876,0.79687 -5.10938,2.20312 -7.125,4.07812l0.28124,-0.5625l-11.15624,-6.32812l-5.90626,10.45312l11.15626,6.32813l0.28124,-0.46874c-0.23437,1.17187 -0.375,2.4375 -0.375,3.65624c0,1.21876 0.14063,2.4375 0.375,3.60937l-0.28124,-0.42187l-11.15626,6.28126l5.85937,10.45312l11.20313,-6.32812l-0.28124,-0.51563c1.96874,1.875 4.40624,3.28124 7.125,4.07813h-0.84376v12.84374h12v-12.84374h-0.84374c2.71874,-0.79688 5.10937,-2.20313 7.125,-4.07813l-0.28126,0.5625l11.15626,6.32813l5.90624,-10.45313l-11.15624,-6.32813l-0.28126,0.46876c0.23437,-1.17188 0.375,-2.4375 0.375,-3.65626c0,-1.21874 -0.14063,-2.48437 -0.375,-3.65624l0.28126,0.46874l11.15624,-6.28124l-5.85937,-10.5l-11.20313,6.32812l0.32813,0.60938c-2.01563,-1.92188 -4.45313,-3.32813 -7.17187,-4.125h0.84374v-12.84376zM78,84c3.28126,0 6,2.71876 6,6c0,3.28126 -2.71874,6 -6,6c-3.28124,0 -6,-2.71874 -6,-6c0,-3.28124 2.71876,-6 6,-6z"/></g></g></g></svg>
