<?xml version="1.0"?>
<svg xmlns="http://www.w3.org/2000/svg" xmlns:xlink="http://www.w3.org/1999/xlink" version="1.1" viewBox="0 0 192 192" width="96px" height="96px"><g fill="none" fill-rule="nonzero" stroke="none" stroke-width="1" stroke-linecap="butt" stroke-linejoin="miter" stroke-miterlimit="10" stroke-dasharray="" stroke-dashoffset="0" font-family="none" font-weight="none" font-size="none" text-anchor="none" style="mix-blend-mode: normal"><path d="M0,192v-192h192v192z" fill="none" stroke="none"/><g id="original-icon" fill="#525274" stroke="none" opacity="0" visibility="hidden"><g id="surface1"><path d="M30,24c-9.89063,0 -18,8.10937 -18,18v96c0,9.89063 8.10937,18 18,18h132c9.89063,0 18,-8.10937 18,-18v-96c0,-9.89063 -8.10937,-18 -18,-18zM30,36h132c0.42187,0 0.75,0.14063 1.125,0.23437l-67.125,46.45313l-67.125,-46.45313c0.375,-0.09374 0.70313,-0.23437 1.125,-0.23437zM24,47.4375l72,49.875l72,-49.875v90.5625c0,3.375 -2.625,6 -6,6h-132c-3.375,0 -6,-2.625 -6,-6z"/></g></g><g id="subtracted-icon" fill="#525274" stroke="none"><g id="surface1 1"><path d="M162,24c9.89063,0 18,8.10937 18,18v45.13046c-3.6861,-3.04903 -7.70763,-5.70605 -12,-7.9065v-31.78646l-35.82689,24.81759c-16.67415,1.46631 -31.59185,9.1637 -42.40291,20.74198l-65.7702,-45.55957v90.5625c0,3.375 2.625,6 6,6h42.27054c0.37321,4.11972 1.12685,8.13156 2.22541,12h-44.49594c-9.89063,0 -18,-8.10937 -18,-18v-96c0,-9.89063 8.10937,-18 18,-18zM28.875,36.23437l67.125,46.45313l67.125,-46.45313c-0.375,-0.09374 -0.70313,-0.23437 -1.125,-0.23437h-132c-0.42187,0 -0.75,0.14063 -1.125,0.23437z"/></g></g><g stroke="none"><g fill="#525274"><path d="M138,84c-29.772,0 -54,24.228 -54,54c0,29.772 24.228,54 54,54c29.772,0 54,-24.228 54,-54c0,-29.772 -24.228,-54 -54,-54zM138,180c-23.16,0 -42,-18.84 -42,-42c0,-23.16 18.84,-42 42,-42c23.16,0 42,18.84 42,42c0,23.16 -18.84,42 -42,42z"/><path d="M155.352,112.164l-17.352,17.352l-17.352,-17.352l-8.484,8.484l17.352,17.352l-17.352,17.352l8.484,8.484l17.352,-17.352l17.352,17.352l8.484,-8.484l-17.352,-17.352l17.352,-17.352z"/></g><g id="Layer_1" fill="#000000" opacity="0"><g><path d="M138,72c-36.384,0 -66,29.616 -66,66c0,36.384 29.616,66 66,66c36.384,0 66,-29.616 66,-66c0,-36.384 -29.616,-66 -66,-66z"/></g></g></g><path d="M84,192v-108h108v108z" id="overlay-drag" fill="#ff0000" stroke="none" opacity="0"/></g></svg>
