<?xml version="1.0"?>
<svg xmlns="http://www.w3.org/2000/svg" xmlns:xlink="http://www.w3.org/1999/xlink" version="1.1" viewBox="0 0 192 192" width="96px" height="96px"><g fill="none" fill-rule="nonzero" stroke="none" stroke-width="1" stroke-linecap="butt" stroke-linejoin="miter" stroke-miterlimit="10" stroke-dasharray="" stroke-dashoffset="0" font-family="none" font-weight="none" font-size="none" text-anchor="none" style="mix-blend-mode: normal"><path d="M0,192v-192h192v192z" fill="none"/><g fill="#525274"><g id="surface1"><path d="M92.15626,11.48437c-42.98438,-1.21874 -78.89063,32.8125 -80.10938,75.79688c-1.21874,42.98437 32.8125,78.9375 75.79688,80.15624c42.98437,1.17187 78.9375,-32.8125 80.15624,-75.84374c0.23437,-9 -1.125,-17.67188 -3.75,-25.78126l-9.89063,9.32813c1.17188,5.20313 1.78126,10.59374 1.64063,16.17187c-1.03124,36.375 -31.45313,65.10937 -67.82813,64.125c-36.375,-1.03124 -65.15624,-31.45313 -64.17187,-67.82813c1.03126,-36.375 31.45313,-65.15624 67.82813,-64.17187c11.90624,0.375 22.96874,3.89063 32.48437,9.75l9,-8.53124c-11.8125,-7.875 -25.875,-12.75 -41.15624,-13.17188zM150,33.51563l-72,72l-19.78124,-19.73437l-4.21876,-4.26563l-8.48437,8.48437l4.26563,4.21876l28.21874,28.26562l80.48437,-80.48437z"/></g></g></g></svg>
