<?xml version="1.0"?>
<svg xmlns="http://www.w3.org/2000/svg" xmlns:xlink="http://www.w3.org/1999/xlink" version="1.1" viewBox="0 0 192 192" width="96px" height="96px"><g fill="none" fill-rule="nonzero" stroke="none" stroke-width="1" stroke-linecap="butt" stroke-linejoin="miter" stroke-miterlimit="10" stroke-dasharray="" stroke-dashoffset="0" font-family="none" font-weight="none" font-size="none" text-anchor="none" style="mix-blend-mode: normal"><path d="M0,192v-192h192v192z" fill="none"/><g fill="#525274"><g id="surface1"><path d="M36,12v12h12v24c0,18.1875 10.3125,33.84376 25.26563,42c-14.95313,8.15626 -25.26563,23.8125 -25.26563,42v24h-12v12h120v-12h-12v-24c0,-18.1875 -10.3125,-33.84374 -25.26563,-42c14.95313,-8.15624 25.26563,-23.8125 25.26563,-42v-24h12v-12zM60,24h72v24c0,19.96876 -16.03124,36 -36,36c-19.96874,0 -36,-16.03124 -36,-36zM72,48c0,13.21876 10.78126,24 24,24c13.21876,0 24,-10.78124 24,-24zM96,96c19.96876,0 36,16.03126 36,36v24h-12v-12c0,-13.21874 -10.78124,-24 -24,-24c-13.21874,0 -24,10.78126 -24,24v12h-12v-24c0,-19.96874 16.03126,-36 36,-36z"/></g></g></g></svg>
