<?xml version="1.0"?>
<svg xmlns="http://www.w3.org/2000/svg" xmlns:xlink="http://www.w3.org/1999/xlink" version="1.1" viewBox="0 0 192 192" width="96px" height="96px"><g fill="none" fill-rule="nonzero" stroke="none" stroke-width="1" stroke-linecap="butt" stroke-linejoin="miter" stroke-miterlimit="10" stroke-dasharray="" stroke-dashoffset="0" font-family="none" font-weight="none" font-size="none" text-anchor="none" style="mix-blend-mode: normal"><path d="M0,192v-192h192v192z" fill="none"/><g fill="#525274"><g id="surface1"><path d="M126,18c-26.4375,0 -48,21.5625 -48,48c0,1.78126 0.28126,3.42187 0.46876,5.0625c-17.85938,17.90626 -48.23438,48.28126 -51.65626,51.75c-11.67187,11.625 -11.67187,30.75 0,42.375c11.625,11.67187 30.75,11.67187 42.375,0l51.70313,-51.65624c1.6875,0.1875 3.32813,0.46874 5.10937,0.46874c26.4375,0 48,-21.5625 48,-48c0,-7.96874 -1.96874,-15.51563 -5.4375,-22.125l-3.75,-7.21874l-31.6875,31.64062l-9.42187,-9.42187l31.6875,-31.6875l-7.26563,-3.75c-6.60937,-3.46874 -14.15624,-5.4375 -22.125,-5.4375zM126,30c2.76563,0 5.10937,1.26563 7.6875,1.875l-26.95313,27l26.39063,26.39063l4.26563,-4.26563l22.73437,-22.6875c0.60937,2.57813 1.875,4.92187 1.875,7.6875c0,19.96876 -16.03124,36 -36,36c-2.10937,0 -4.21874,-0.23437 -6.375,-0.5625l-3.04687,-0.5625l-55.82813,55.875c-7.125,7.07813 -18.375,7.07813 -25.5,0c-7.07813,-7.125 -7.07813,-18.375 0,-25.5c3.60937,-3.5625 36.1875,-36.14063 53.67187,-53.625l2.20313,-2.25l-0.5625,-3.04687c-0.32813,-2.10937 -0.5625,-4.21876 -0.5625,-6.32813c0,-19.96874 16.03126,-36 36,-36z"/></g></g></g></svg>
