<?xml version="1.0"?>
<svg xmlns="http://www.w3.org/2000/svg" xmlns:xlink="http://www.w3.org/1999/xlink" version="1.1" viewBox="0 0 192 192" width="96px" height="96px"><g fill="none" fill-rule="nonzero" stroke="none" stroke-width="1" stroke-linecap="butt" stroke-linejoin="miter" stroke-miterlimit="10" stroke-dasharray="" stroke-dashoffset="0" font-family="none" font-weight="none" font-size="none" text-anchor="none" style="mix-blend-mode: normal"><path d="M0,192v-192h192v192z" fill="none" stroke="none"/><g id="original-icon" fill="#525274" stroke="none" opacity="0" visibility="hidden"><g id="surface1"><path d="M30,24c-9.89063,0 -18,8.10937 -18,18v96c0,9.89063 8.10937,18 18,18h132c9.89063,0 18,-8.10937 18,-18v-96c0,-9.89063 -8.10937,-18 -18,-18zM30,36h132c0.42187,0 0.75,0.14063 1.125,0.23437l-67.125,46.45313l-67.125,-46.45313c0.375,-0.09374 0.70313,-0.23437 1.125,-0.23437zM24,47.4375l72,49.875l72,-49.875v90.5625c0,3.375 -2.625,6 -6,6h-132c-3.375,0 -6,-2.625 -6,-6z"/></g></g><g id="subtracted-icon" fill="#525274" stroke="none"><g id="surface1 1"><path d="M162,24c9.89063,0 18,8.10937 18,18v55.86762l-12,12.26174v-62.69185l-72,49.875l-72,-49.875v90.5625c0,3.375 2.625,6 6,6h43.53554l-6.5857,6.34788l5.44264,5.65212h-42.39248c-9.89063,0 -18,-8.10937 -18,-18v-96c0,-9.89063 8.10937,-18 18,-18zM28.875,36.23437l67.125,46.45313l67.125,-46.45313c-0.375,-0.09374 -0.70313,-0.23437 -1.125,-0.23437h-132c-0.42187,0 -0.75,0.14063 -1.125,0.23437zM125.68897,153.36324l-9.02231,-9.36324h18.18569z"/></g></g><g stroke="none"><g id="Layer_1" fill="#525274"><path d="M125.52815,192l-39.62848,-41.15626l9.64914,-9.3007l30.05975,31.21228l56.80931,-58.05565l9.58213,9.38111z"/></g><g id="Layer_1" fill="#000000" opacity="0"><path d="M182.21685,95.60242l-56.52787,57.76082l-29.79172,-30.91745l-28.94742,27.90209l58.49791,60.74937l85.50209,-87.36491l-28.73299,-28.12992z"/></g></g><path d="M85.89967,192v-77.30033h106.10033v77.30033z" id="overlay-drag" fill="#ff0000" stroke="none" opacity="0"/></g></svg>
