<?xml version="1.0"?>
<svg xmlns="http://www.w3.org/2000/svg" xmlns:xlink="http://www.w3.org/1999/xlink" version="1.1" viewBox="0 0 192 192" width="96px" height="96px"><g fill="none" fill-rule="nonzero" stroke="none" stroke-width="1" stroke-linecap="butt" stroke-linejoin="miter" stroke-miterlimit="10" stroke-dasharray="" stroke-dashoffset="0" font-family="none" font-weight="none" font-size="none" text-anchor="none" style="mix-blend-mode: normal"><path d="M0,192v-192h192v192z" fill="none"/><g fill="#525274"><path d="M54,24c-9.87038,0 -18,8.12962 -18,18v108c0,9.87037 8.12962,18 18,18h30v-12h-30c-3.37762,0 -6,-2.62237 -6,-6v-108c0,-3.37762 2.62238,-6 6,-6h54v36h36v48h12v-56.48437l-39.51563,-39.51563zM120,44.48437l15.51563,15.51563h-15.51563zM183.25781,120.25781l-51.25781,51.25782l-27.25781,-27.25782l-8.48437,8.48438l35.74219,35.74218l59.74219,-59.74218z"/></g></g></svg>
