<?xml version="1.0"?>
<svg xmlns="http://www.w3.org/2000/svg" xmlns:xlink="http://www.w3.org/1999/xlink" version="1.1" viewBox="0 0 192 192" width="96px" height="96px"><g fill="none" fill-rule="nonzero" stroke="none" stroke-width="1" stroke-linecap="butt" stroke-linejoin="miter" stroke-miterlimit="10" stroke-dasharray="" stroke-dashoffset="0" font-family="none" font-weight="none" font-size="none" text-anchor="none" style="mix-blend-mode: normal"><path d="M0,192v-192h192v192z" fill="none"/><g fill="#525274"><g id="surface1"><path d="M115.6875,12.04687c-4.64063,0 -9.28124,1.78126 -12.79687,5.29688l-85.54687,85.54687c-7.03126,7.03124 -7.03126,18.5625 0,25.59374l34.21874,34.21876c3.51563,3.5625 8.25,5.29687 12.9375,5.25v0.04687h103.5v-12h-84.1875l78.89063,-78.84374c7.03124,-7.03126 7.03124,-18.60938 0,-25.59376l-34.21876,-34.21874c-3.51562,-3.51563 -8.15624,-5.29688 -12.79687,-5.29688zM115.6875,24c1.54687,0 3.09376,0.5625 4.3125,1.78126l34.21876,34.21874c2.4375,2.48437 2.4375,6.1875 0,8.625l-38.53126,38.53126l-42.84374,-42.79688l38.53124,-38.57812c1.21876,-1.21876 2.76563,-1.78126 4.3125,-1.78126zM64.35937,72.84376l42.79688,42.84374l-38.53126,38.48437c-2.39063,2.4375 -6.1875,2.4375 -8.625,0l-34.21874,-34.17187c-2.4375,-2.4375 -2.4375,-6.1875 0,-8.625z"/></g></g></g></svg>
