<?xml version="1.0"?>
<svg xmlns="http://www.w3.org/2000/svg" xmlns:xlink="http://www.w3.org/1999/xlink" version="1.1" viewBox="0 0 192 192" width="96px" height="96px"><g fill="none" fill-rule="nonzero" stroke="none" stroke-width="1" stroke-linecap="butt" stroke-linejoin="miter" stroke-miterlimit="10" stroke-dasharray="" stroke-dashoffset="0" font-family="none" font-weight="none" font-size="none" text-anchor="none" style="mix-blend-mode: normal"><path d="M0,192v-192h192v192z" fill="none" stroke="none"/><g id="original-icon" fill="#525274" stroke="none" opacity="0" visibility="hidden"><g id="surface1"><path d="M108,12v12h-49.64063c-18.9375,0 -34.35937,15.60937 -34.35937,34.64063v73.35937h-24v12h108v36h12v-36h60v-85.35937c0,-19.03126 -15.42187,-34.64063 -34.35937,-34.64063h-1.64063v12h1.64063c12.42187,0 22.35937,10.03126 22.35937,22.64063v73.35937h-72v-73.35937c0,-8.67187 -3.32813,-16.54687 -8.625,-22.64063h20.625v36h12v-48h12v-12zM58.35937,36h3.28126c12.42187,0 22.35937,10.03126 22.35937,22.64063v13.35937h-36v60h-12v-73.35937c0,-12.60937 9.9375,-22.64063 22.35937,-22.64063zM68.48437,84h15.51563v15.51563zM60,92.48437l24,24v15.51563h-24z"/></g></g><g id="subtracted-icon" fill="#525274" stroke="none"><g id="surface1 1"><path d="M132,12v12h-12v48h-12v-36h-20.625c5.29687,6.09376 8.625,13.96876 8.625,22.64063l0,63.91179l-0.10275,-0.10663l-22.36172,21.55421h-73.53554v-12h24v-73.35937c0,-19.03126 15.42187,-34.64063 34.35937,-34.64063h49.64063v-12zM168,58.64063c0,-12.60937 -9.9375,-22.64063 -22.35937,-22.64063h-1.64063v-12h1.64063c18.9375,0 34.35937,15.60937 34.35937,34.64063l0,39.22699l-12,12.26174zM120,144v3.4593l-14.89641,-15.4593h41.49261l-11.74385,12zM36,58.64063v73.35937h12v-60h36v-13.35937c0,-12.60937 -9.9375,-22.64063 -22.35937,-22.64063h-3.28126c-12.42187,0 -22.35937,10.03126 -22.35937,22.64063zM84,99.51563v-15.51563h-15.51563zM60,132h24v-15.51563l-24,-24z"/></g></g><g stroke="none"><g id="Layer_1" fill="#525274"><path d="M125.52815,192l-39.62848,-41.15626l9.64914,-9.3007l30.05975,31.21228l56.80931,-58.05565l9.58213,9.38111z"/></g><g id="Layer_1" fill="#000000" opacity="0"><path d="M182.21685,95.60242l-56.52787,57.76082l-29.79172,-30.91745l-28.94742,27.90209l58.49791,60.74937l85.50209,-87.36491l-28.73299,-28.12992z"/></g></g><path d="M85.89967,192v-77.30033h106.10033v77.30033z" id="overlay-drag" fill="#ff0000" stroke="none" opacity="0"/></g></svg>
