<?xml version="1.0"?>
<svg xmlns="http://www.w3.org/2000/svg" xmlns:xlink="http://www.w3.org/1999/xlink" version="1.1" viewBox="0 0 192 192" width="96px" height="96px"><g fill="none" fill-rule="nonzero" stroke="none" stroke-width="1" stroke-linecap="butt" stroke-linejoin="miter" stroke-miterlimit="10" stroke-dasharray="" stroke-dashoffset="0" font-family="none" font-weight="none" font-size="none" text-anchor="none" style="mix-blend-mode: normal"><path d="M0,192v-192h192v192z" fill="none"/><g fill="#525274"><g id="surface1"><path d="M90,12c-22.92187,0 -43.59374,9.9375 -57.89063,25.78126l-20.10937,-20.0625v42.28124h42.42187l-13.78124,-13.73437c12.09374,-13.64063 29.67187,-22.26563 49.35937,-22.26563c36.51563,0 66,29.48437 66,66c0,36.51563 -29.48437,66 -66,66h-6v12h6c43.03126,0 78,-34.96874 78,-78c0,-43.03124 -34.96874,-78 -78,-78zM84.14063,48v12h-6.14063c-9.89063,0 -18,8.10937 -18,18c0,9.89063 8.10937,18 18,18h24c3.375,0 6,2.625 6,6c0,3.375 -2.625,6 -6,6h-42v12h24.14063v12h12v-12h5.85937c9.89063,0 18,-8.10937 18,-18c0,-9.89063 -8.10937,-18 -18,-18h-24c-3.375,0 -6,-2.625 -6,-6c0,-3.375 2.625,-6 6,-6h30v-12h-11.85937v-12zM18,84c-3.32813,0 -6,2.67187 -6,6c0,3.32813 2.67187,6 6,6c3.32813,0 6,-2.67187 6,-6c0,-3.32813 -2.67187,-6 -6,-6zM27.51563,120c-0.98437,0 -1.96876,0.28126 -2.85937,0.79687c-1.35938,0.79688 -2.39063,2.10938 -2.8125,3.65626c-0.42188,1.54687 -0.1875,3.1875 0.60937,4.54687c1.64063,2.85937 5.34374,3.84376 8.20313,2.20313c2.85937,-1.6875 3.84374,-5.34376 2.15624,-8.20313c-1.07813,-1.875 -3.09374,-3.04687 -5.29687,-3zM53.71876,146.39063c-2.0625,0.04687 -3.89063,1.17187 -4.92188,2.95313c-0.79687,1.35937 -1.03124,3 -0.60937,4.54687c0.42187,1.54687 1.45313,2.85937 2.8125,3.65624c1.35937,0.79688 3,1.03126 4.54687,0.60938c1.54688,-0.42188 2.85938,-1.45313 3.65626,-2.8125c1.64063,-2.85938 0.65624,-6.51563 -2.20313,-8.15626c-0.98437,-0.60937 -2.15624,-0.89063 -3.28124,-0.79687z"/></g></g></g></svg>
