<?xml version="1.0"?>
<svg xmlns="http://www.w3.org/2000/svg" xmlns:xlink="http://www.w3.org/1999/xlink" version="1.1" viewBox="0 0 192 192" width="96px" height="96px"><g fill="none" fill-rule="nonzero" stroke="none" stroke-width="1" stroke-linecap="butt" stroke-linejoin="miter" stroke-miterlimit="10" stroke-dasharray="" stroke-dashoffset="0" font-family="none" font-weight="none" font-size="none" text-anchor="none" style="mix-blend-mode: normal"><path d="M0,192v-192h192v192z" fill="none"/><g fill="#525274"><path d="M96,12c-18.40506,0 -44.57847,6.24105 -58.45313,9.77344c-7.94869,2.02298 -13.54687,9.25154 -13.54687,17.4375v38.78906c0,29.69571 17.61468,54.85632 34.66406,72.60937c17.04938,17.75305 34.14844,28.47656 34.14844,28.47656l3.23437,2.01563l3.1875,-2.0625c0,0 17.06847,-10.96196 34.10156,-28.82813c17.0331,-17.86616 34.66406,-42.97367 34.66406,-72.21094v-38.78906c0,-8.18859 -5.59544,-15.39734 -13.52344,-17.4375h-0.02344c-13.87409,-3.53239 -40.04807,-9.77344 -58.45313,-9.77344zM96,24c15.52457,0 41.91424,5.9462 55.47656,9.39844c2.70401,0.69584 4.52344,3.0331 4.52344,5.8125v38.78906c0,24.30674 -15.36904,47.18966 -31.33594,63.9375c-14.36002,15.06235 -25.94756,22.4806 -28.6875,24.30469c-2.73638,-1.78108 -14.29556,-8.99257 -28.64063,-23.92969c-15.95062,-16.60895 -31.33594,-39.45621 -31.33594,-64.3125v-38.78906c0,-2.80604 1.79269,-5.12348 4.5,-5.8125c13.55735,-3.45161 39.96906,-9.39844 55.5,-9.39844zM139.75781,51.25781l-51.25781,51.25781l-27.25781,-27.25781l-8.48437,8.48437l35.74219,35.74219l59.74219,-59.74219z"/></g></g></svg>
