<?xml version="1.0"?>
<svg xmlns="http://www.w3.org/2000/svg" xmlns:xlink="http://www.w3.org/1999/xlink" version="1.1" viewBox="0 0 192 192" width="96px" height="96px"><g fill="none" fill-rule="nonzero" stroke="none" stroke-width="1" stroke-linecap="butt" stroke-linejoin="miter" stroke-miterlimit="10" stroke-dasharray="" stroke-dashoffset="0" font-family="none" font-weight="none" font-size="none" text-anchor="none" style="mix-blend-mode: normal"><path d="M0,192v-192h192v192z" fill="none" stroke="none"/><g id="original-icon" fill="#525274" stroke="none" opacity="0" visibility="hidden"><path d="M30,24c-9.87038,0 -18,8.12962 -18,18v66h12v-66c0,-3.37762 2.62238,-6 6,-6h54v12h12v-12h54c3.37763,0 6,2.62238 6,6v66h12v-66c0,-9.87038 -8.12963,-18 -18,-18zM36,84v24h12v-24zM60,84v24h12v-24zM84,84v24h12v-24zM108,84v24h12v-24zM132,84v24h12v-24zM48,120v48h48c0,-6.624 5.376,-12 12,-12c6.624,0 12,5.376 12,12h12v-48zM102,130.5c3.312,0 6,2.688 6,6c0,3.312 -2.688,6 -6,6c-3.312,0 -6,-2.688 -6,-6c0,-3.312 2.688,-6 6,-6zM72,132c6.624,0 12,5.376 12,12c0,6.624 -5.376,12 -12,12c-6.624,0 -12,-5.376 -12,-12c0,-6.624 5.376,-12 12,-12z"/></g><g id="subtracted-icon" fill="#525274" stroke="none"><path d="M150,24c9.87037,0 18,8.12962 18,18v63.71901l-2.27997,2.28099l-9.72003,0v-66c0,-3.37762 -2.62237,-6 -6,-6h-54v12h-12v-12h-54c-3.37762,0 -6,2.62238 -6,6v66h-12v-66c0,-9.87038 8.12962,-18 18,-18zM48,84v24h-12v-24zM72,84v24h-12v-24zM96,84v24h-12v-24zM120,84v7.98855l-12,12v-19.98855zM144,84v24h-6.86205l-5.13795,-5.13795v-18.86205zM108,156c-6.624,0 -12,5.376 -12,12h-48v-48h43.98855l-0.56325,0.56325l9.96717,9.96717c-3.02703,0.30483 -5.39247,2.86264 -5.39247,5.96958c0,3.312 2.688,6 6,6c3.10694,0 5.66475,-2.36545 5.96958,-5.39247l14.32464,14.32464l-7.02477,7.02165c-2.01779,-1.53934 -4.53747,-2.45382 -7.26945,-2.45382zM60,144c0,6.624 5.376,12 12,12c6.624,0 12,-5.376 12,-12c0,-6.624 -5.376,-12 -12,-12c-6.624,0 -12,5.376 -12,12z"/></g><g stroke="none"><g id="Layer_1" fill="#525274"><path d="M192,120.56325l-9.71265,-9.71265l-30.85518,30.86892l-30.86892,-30.86892l-9.71265,9.71265l30.86892,30.86892l-30.86892,30.85518l9.71265,9.71265l30.86892,-30.85518l30.85518,30.85518l9.71265,-9.71265l-30.85518,-30.85518z"/></g><g id="Layer_1" fill="#000000" opacity="0"><path d="M182.28735,91.4253l-30.85518,30.86892l-30.86892,-30.86892l-29.13795,29.13795l30.86892,30.86892l-30.86892,30.85518l29.13795,29.13795l30.86892,-30.85518l30.85518,30.85518l29.13795,-29.13795l-30.85518,-30.85518l30.85518,-30.86892l-29.13795,-29.13795z"/></g></g><path d="M110.8506,192v-81.1494h81.1494v81.1494z" id="overlay-drag" fill="#ff0000" stroke="none" opacity="0"/></g></svg>
